<svg width="20" height="23" viewBox="0 0 20 23" fill="none" xmlns="http://www.w3.org/2000/svg">
<path d="M3.5 0.491455C1.57812 0.491455 0 2.06958 0 3.99146V5.49146C0 5.76685 0.224609 5.99146 0.5 5.99146H3V20.9915C3 21.2668 3.22461 21.4915 3.5 21.4915H10.5V20.4915H4V5.99146H13.5C13.7754 5.99146 14 5.76685 14 5.49146V3.99146C14 2.6145 15.123 1.49146 16.5 1.49146C16.5156 1.49146 16.5312 1.49146 16.5469 1.49146C17.9023 1.51685 19 2.63013 19 3.99146V20.4915H16.5V21.4915H19.5C19.7754 21.4915 20 21.2668 20 20.9915V3.99146C20 2.09497 18.4648 0.532471 16.5781 0.491455C16.5527 0.491455 16.5254 0.491455 16.5 0.491455H3.5ZM3.5 1.49146H14.0781C13.4199 2.12817 13 3.00903 13 3.99146V4.99146H1V3.99146C1 2.6145 2.12305 1.49146 3.5 1.49146ZM6.5 7.49146V8.49146H16.5V7.49146H6.5ZM6.5 10.4915V11.4915H16.5V10.4915H6.5ZM13.5 13.4915C13.1133 13.4915 12.7949 13.7063 12.5625 14.0071C12.2148 13.9309 11.8398 13.9485 11.5312 14.1946C11.2246 14.4407 11.1445 14.8196 11.1562 15.179C10.832 15.3567 10.5645 15.6243 10.5 16.0071C10.4375 16.386 10.6074 16.7219 10.8438 16.9915C10.7031 17.3469 10.6895 17.7434 10.875 18.054C10.9082 18.1106 10.957 18.1477 11 18.1946V22.4915C10.998 22.6809 11.1035 22.8547 11.2734 22.9407C11.4414 23.0266 11.6445 23.011 11.7969 22.8977L13.5 21.6165L15.2031 22.8977C15.3555 23.011 15.5586 23.0266 15.7266 22.9407C15.8965 22.8547 16.002 22.6809 16 22.4915V18.1946C16.043 18.1477 16.0918 18.1106 16.125 18.054C16.3418 17.6926 16.2949 17.3235 16.1562 16.9915C16.3926 16.7219 16.5625 16.386 16.5 16.0071C16.4355 15.6243 16.168 15.3567 15.8438 15.179C15.8555 14.8196 15.7754 14.4407 15.4688 14.1946C15.1602 13.9485 14.7852 13.9309 14.4375 14.0071C14.2109 13.72 13.8926 13.4915 13.5 13.4915ZM14.5 14.1008C14.5215 14.1165 14.5625 14.1477 14.5469 14.1321L14.5312 14.1477C14.5215 14.1321 14.5098 14.1165 14.5 14.1008ZM13.5 14.4915C13.6602 14.4915 13.6758 14.5208 13.7188 14.6477C13.7441 14.7239 13.7871 14.7942 13.8438 14.8508C13.8691 14.8762 13.9004 14.9094 14.0312 14.9758C14.1621 15.0422 14.2715 15.0383 14.2969 15.0383C14.3887 15.0422 14.4824 15.0208 14.5625 14.9758C14.6367 14.9309 14.7715 14.9172 14.8438 14.9758C14.9277 15.0442 14.9277 15.0676 14.875 15.2258C14.8555 15.2805 14.8438 15.3391 14.8438 15.3977C14.8438 15.4661 14.8789 15.4758 14.9062 15.5383C14.9238 15.7629 15.0898 15.9504 15.3125 15.9915C15.3906 16.0051 15.4863 16.1008 15.5 16.179C15.5137 16.2649 15.4648 16.3684 15.3906 16.4133C15.2461 16.5051 15.1562 16.6633 15.1562 16.8352V16.9915C15.1543 17.0969 15.1875 17.2024 15.25 17.2883C15.2637 17.3079 15.2852 17.5071 15.2656 17.5383C15.2207 17.6126 15.1172 17.6614 15.0312 17.6477C14.8477 17.6145 14.6602 17.6868 14.5469 17.8352C14.5469 17.8411 14.5469 17.845 14.5469 17.8508C14.5293 17.8645 14.5371 17.8626 14.5156 17.8821C14.5098 17.8879 14.5059 17.8762 14.5 17.8821C14.4004 17.9758 14.3457 18.1047 14.3438 18.2415C14.3438 18.3743 14.3438 18.3762 14.2344 18.4133C14.2129 18.4231 14.1914 18.4329 14.1719 18.4446C14.168 18.4426 14.1816 18.4446 14.1562 18.4446C14.123 18.4446 14.0254 18.4075 13.9531 18.3352C13.8574 18.2415 13.7266 18.1907 13.5938 18.1946H13.4062C13.2734 18.1907 13.1426 18.2415 13.0469 18.3352C12.9648 18.4172 12.875 18.4504 12.7656 18.4133C12.7051 18.3801 12.6562 18.3118 12.6562 18.2415C12.6562 18.1458 12.6094 18.0168 12.5469 17.929C12.4902 17.8489 12.4395 17.8098 12.4062 17.7883C12.291 17.6731 12.1289 17.6204 11.9688 17.6477C11.8828 17.6614 11.7793 17.6126 11.7344 17.5383C11.6758 17.4387 11.6562 17.4016 11.7344 17.304C11.8047 17.2161 11.8438 17.1047 11.8438 16.9915V16.8352C11.8438 16.6633 11.7539 16.5051 11.6094 16.4133C11.5352 16.3684 11.4863 16.2649 11.5 16.179C11.5137 16.1008 11.6094 16.0051 11.6875 15.9915C11.9102 15.9504 12.0762 15.7629 12.0938 15.5383C12.1211 15.4758 12.1562 15.4661 12.1562 15.3977C12.1562 15.3391 12.1445 15.2805 12.125 15.2258C12.0723 15.0676 12.0723 15.0442 12.1562 14.9758C12.2285 14.9172 12.3633 14.9309 12.4375 14.9758C12.5918 15.0657 12.7832 15.0657 12.9375 14.9758C12.9434 14.9758 12.9473 14.9758 12.9531 14.9758C12.959 14.97 12.9629 14.9661 12.9688 14.9602C12.9785 14.9563 12.9902 14.9504 13 14.9446C13.1309 14.8899 13.2344 14.7825 13.2812 14.6477C13.3066 14.5696 13.4219 14.4915 13.5 14.4915ZM12 19.0227C12.1133 19.1672 12.25 19.2825 12.4219 19.3508C12.4277 19.3567 12.4316 19.3606 12.4375 19.3665C12.8164 19.4934 13.1816 19.3821 13.4844 19.1946C13.4883 19.1926 13.4961 19.1965 13.5 19.1946H13.5938C13.7715 19.2981 13.9297 19.4446 14.1562 19.4446C14.2422 19.4446 14.4141 19.4075 14.5625 19.3508C14.5703 19.343 14.584 19.3391 14.5938 19.3352C14.6035 19.3313 14.6152 19.3411 14.625 19.3352V19.3196C14.7793 19.2551 14.9023 19.1575 15 19.0383V21.4915L13.7969 20.5852C13.6211 20.4543 13.3789 20.4543 13.2031 20.5852L12 21.4915V19.0227Z" fill="#3933DF"/>
</svg>
