<svg width="20" height="21" viewBox="0 0 20 21" fill="none" xmlns="http://www.w3.org/2000/svg">
<path d="M10 0.584717C4.48703 0.584717 0 5.07173 0 10.5847C0 16.0977 4.48703 20.5848 10 20.5848C15.513 20.5848 20 16.0977 20 10.5847C20 5.07173 15.513 0.584717 10 0.584717ZM10 2.25137C14.6122 2.25137 18.3333 5.97247 18.3333 10.5847C18.3333 15.1969 14.6122 18.918 10 18.918C5.38775 18.918 1.66667 15.1969 1.66667 10.5847C1.66667 5.97247 5.38775 2.25137 10 2.25137ZM8.39029 4.14265C8.31523 4.14457 8.24079 4.15661 8.16895 4.17847C5.95883 4.80937 4.22303 6.54517 3.59213 8.75529C3.56209 8.86055 3.55309 8.97071 3.56561 9.07945C3.57815 9.18821 3.61199 9.29343 3.66519 9.38909C3.71839 9.48477 3.78991 9.56903 3.87567 9.63705C3.96143 9.70509 4.05977 9.75555 4.16503 9.78559C4.27031 9.81563 4.38045 9.82463 4.48921 9.81209C4.59795 9.79955 4.70317 9.76571 4.79883 9.71251C4.89451 9.65929 4.97877 9.58777 5.04679 9.50201C5.11481 9.41623 5.16529 9.31791 5.19531 9.21265C5.66773 7.55775 6.97141 6.25407 8.62631 5.78165C8.82409 5.72955 8.99581 5.60653 9.10877 5.43601C9.22173 5.26549 9.26803 5.05941 9.23889 4.85695C9.20973 4.65451 9.10715 4.46985 8.95069 4.33813C8.79421 4.20641 8.59475 4.13685 8.39029 4.14265ZM10 7.25137C8.15917 7.25137 6.66667 8.74387 6.66667 10.5847C6.66667 12.4255 8.15917 13.918 10 13.918C11.8408 13.918 13.3333 12.4255 13.3333 10.5847C13.3333 8.74387 11.8408 7.25137 10 7.25137ZM10 9.75137C10.46 9.75137 10.8333 10.1247 10.8333 10.5847C10.8333 11.0447 10.46 11.418 10 11.418C9.54001 11.418 9.16667 11.0447 9.16667 10.5847C9.16667 10.1247 9.54001 9.75137 10 9.75137ZM15.3532 12.0365C15.1896 12.0383 15.0301 12.0881 14.8947 12.1799C14.7592 12.2716 14.6538 12.4012 14.5915 12.5525C14.0868 13.7288 13.144 14.6715 11.9678 15.1762C11.864 15.2171 11.7696 15.2783 11.6899 15.3564C11.6103 15.4344 11.5472 15.5277 11.5042 15.6306C11.4613 15.7334 11.4394 15.8439 11.4399 15.9554C11.4404 16.0669 11.4633 16.1772 11.5072 16.2797C11.5511 16.3821 11.6151 16.4748 11.6955 16.5521C11.7758 16.6294 11.8708 16.6898 11.975 16.7297C12.0791 16.7696 12.1901 16.7883 12.3015 16.7845C12.413 16.7807 12.5225 16.7546 12.6237 16.7077C14.1941 16.034 15.4493 14.7788 16.123 13.2084C16.1797 13.0809 16.2035 12.9412 16.1921 12.8021C16.1807 12.663 16.1346 12.5289 16.058 12.4123C15.9814 12.2957 15.8767 12.2001 15.7535 12.1345C15.6304 12.0688 15.4927 12.0351 15.3532 12.0365Z" fill="#3933DF"/>
</svg>
