<svg width="10" height="10" viewBox="0 0 20 21" fill="none" xmlns="http://www.w3.org/2000/svg">
<path d="M7.64746 10.5844C7.64746 9.4752 7.64746 8.92061 7.99204 8.57603C8.33662 8.23145 8.89122 8.23145 10.0004 8.23145V8.23145C11.1096 8.23145 11.6642 8.23145 12.0088 8.57603C12.3533 8.92061 12.3533 9.4752 12.3533 10.5844V10.5844C12.3533 11.6936 12.3533 12.2482 12.0088 12.5927C11.6642 12.9373 11.1096 12.9373 10.0004 12.9373V12.9373C8.89122 12.9373 8.33662 12.9373 7.99204 12.5927C7.64746 12.2482 7.64746 11.6936 7.64746 10.5844V10.5844Z" fill="#3933DF"/>
<path fill-rule="evenodd" clip-rule="evenodd" d="M7.64683 0.584473C7.9717 0.584473 8.23506 0.847835 8.23506 1.17271V4.70212C8.23506 5.02699 7.9717 5.29036 7.64683 5.29036C7.32196 5.29036 7.05859 5.02699 7.05859 4.70212V1.17271C7.05859 0.847835 7.32196 0.584473 7.64683 0.584473Z" fill="#3933DF"/>
<path fill-rule="evenodd" clip-rule="evenodd" d="M12.3529 0.584473C12.6778 0.584473 12.9411 0.847835 12.9411 1.17271V4.70212C12.9411 5.02699 12.6778 5.29036 12.3529 5.29036C12.028 5.29036 11.7646 5.02699 11.7646 4.70212V1.17271C11.7646 0.847835 12.028 0.584473 12.3529 0.584473Z" fill="#3933DF"/>
<path fill-rule="evenodd" clip-rule="evenodd" d="M20 8.2313C20 8.55618 19.7366 8.81954 19.4118 8.81954L15.8824 8.81954C15.5575 8.81954 15.2941 8.55617 15.2941 8.2313C15.2941 7.90643 15.5575 7.64307 15.8824 7.64307L19.4118 7.64307C19.7366 7.64307 20 7.90643 20 8.2313Z" fill="#3933DF"/>
<path fill-rule="evenodd" clip-rule="evenodd" d="M19.4118 13.5251C19.7366 13.5251 20 13.2617 20 12.9369C20 12.612 19.7366 12.3486 19.4118 12.3486L16.471 12.3486C16.4715 12.1733 16.4715 11.9918 16.4715 11.8039L16.4715 9.36487C16.4715 8.29224 16.4715 7.42767 16.3801 6.74769C16.2851 6.04172 16.0821 5.44731 15.61 4.97522C15.1379 4.50313 14.5435 4.30008 13.8375 4.20516C13.1576 4.11374 12.293 4.11375 11.2204 4.11377L11.2204 4.11377L8.78135 4.11377L8.78133 4.11377C7.70872 4.11375 6.84416 4.11374 6.1642 4.20516C5.45823 4.30008 4.86382 4.50313 4.39172 4.97522C3.91963 5.44731 3.71658 6.04172 3.62166 6.74769C3.53025 7.42766 3.53026 8.29221 3.53027 9.36481L3.53027 9.36485L3.53027 11.8039L3.53027 11.8039C3.53026 12.8765 3.53025 13.7411 3.62167 14.421C3.71658 15.127 3.91963 15.7214 4.39173 16.1935C4.86382 16.6656 5.45823 16.8686 6.16419 16.9636C6.84417 17.055 7.70874 17.055 8.78137 17.0549L11.2204 17.0549C12.293 17.055 13.1576 17.055 13.8375 16.9636C14.5435 16.8686 15.1379 16.6656 15.61 16.1935C16.0821 15.7214 16.2851 15.127 16.3801 14.421C16.4163 14.1518 16.4381 13.8537 16.4513 13.5251L19.4118 13.5251ZM5.22362 5.80711C5.44068 5.59004 5.74545 5.44852 6.32096 5.37114C6.91339 5.29149 7.69858 5.29024 8.82439 5.29024L11.1773 5.29024C12.3031 5.29024 13.0883 5.29149 13.6808 5.37114C14.2563 5.44852 14.561 5.59004 14.7781 5.80711C14.9952 6.02418 15.1367 6.32894 15.2141 6.90445C15.2937 7.49689 15.295 8.28207 15.295 9.40789L15.295 11.7608C15.295 12.8866 15.2937 13.6718 15.2141 14.2643C15.1367 14.8398 14.9952 15.1445 14.7781 15.3616C14.561 15.5787 14.2563 15.7202 13.6808 15.7976C13.0883 15.8772 12.3031 15.8785 11.1773 15.8785L8.82439 15.8785C7.69858 15.8785 6.91339 15.8772 6.32096 15.7976C5.74545 15.7202 5.44068 15.5787 5.22362 15.3616C5.00655 15.1445 4.86502 14.8398 4.78764 14.2643C4.70799 13.6718 4.70674 12.8866 4.70674 11.7608L4.70674 9.40789C4.70674 8.28207 4.70799 7.49688 4.78764 6.90445C4.86502 6.32894 5.00655 6.02418 5.22362 5.80711Z" fill="#3933DF"/>
<path fill-rule="evenodd" clip-rule="evenodd" d="M7.64683 15.8789C7.9717 15.8789 8.23506 16.1423 8.23506 16.4671V19.9966C8.23506 20.3214 7.9717 20.5848 7.64683 20.5848C7.32196 20.5848 7.05859 20.3214 7.05859 19.9966V16.4671C7.05859 16.1423 7.32196 15.8789 7.64683 15.8789Z" fill="#3933DF"/>
<path fill-rule="evenodd" clip-rule="evenodd" d="M12.3529 15.8789C12.6778 15.8789 12.9411 16.1423 12.9411 16.4671V19.9966C12.9411 20.3214 12.6778 20.5848 12.3529 20.5848C12.028 20.5848 11.7646 20.3214 11.7646 19.9966V16.4671C11.7646 16.1423 12.028 15.8789 12.3529 15.8789Z" fill="#3933DF"/>
<path fill-rule="evenodd" clip-rule="evenodd" d="M4.70605 8.2313C4.70605 8.55618 4.44269 8.81954 4.11782 8.81954L0.588407 8.81954C0.263534 8.81954 0.000172098 8.55617 0.000172113 8.2313C0.000172127 7.90643 0.263534 7.64307 0.588407 7.64307L4.11782 7.64307C4.44269 7.64307 4.70605 7.90643 4.70605 8.2313Z" fill="#3933DF"/>
<path fill-rule="evenodd" clip-rule="evenodd" d="M4.70605 12.9369C4.70605 13.2617 4.44269 13.5251 4.11782 13.5251L0.588407 13.5251C0.263534 13.5251 0.000172098 13.2617 0.000172113 12.9369C0.000172127 12.612 0.263534 12.3486 0.588407 12.3486L4.11782 12.3486C4.44269 12.3486 4.70605 12.612 4.70605 12.9369Z" fill="#3933DF"/>
</svg>
