<svg xmlns="http://www.w3.org/2000/svg"  viewBox="0 0 100 100" width="512px" height="512px"><path d="M 61.621094 5.0019531 A 2.0002 2.0002 0 0 0 60.667969 5.2988281 C 45.417715 14.741526 29.332398 20.579852 12.609375 23.904297 A 2.0002 2.0002 0 0 0 11.119141 26.546875 C 20.393625 52.15792 30.231926 76.074065 38.65625 93.292969 A 2.0002 2.0002 0 0 0 40.810547 94.382812 C 53.942954 91.989277 68.408628 87.062978 81.40625 80.558594 L 81.40625 80.560547 C 81.904209 80.311567 82.847656 79.828125 82.847656 79.828125 A 2.0002 2.0002 0 0 0 83.794922 78.792969 L 90.726562 61.541016 A 2.0002 2.0002 0 0 0 90.753906 60.119141 C 90.753906 60.119141 90.264371 58.760096 90.011719 58.068359 C 83.215025 39.470743 74.746895 21.804515 63.347656 5.8378906 A 2.0002 2.0002 0 0 0 61.621094 5.0019531 z M 61.0625 9.6484375 C 66.817668 17.892698 71.81918 26.601984 76.232422 35.679688 L 73.421875 35.072266 A 1.0001 1.0001 0 0 0 73.224609 35.046875 A 1.0001 1.0001 0 0 0 73 37.027344 L 77.324219 37.960938 C 77.778878 38.923795 78.227946 39.890505 78.669922 40.861328 L 75.720703 40.548828 A 1.0001 1.0001 0 0 0 75.621094 40.541016 A 1.0001 1.0001 0 0 0 75.509766 42.537109 L 79.625 42.974609 C 80.049111 43.93099 80.464406 44.891798 80.876953 45.855469 L 76.896484 45.054688 A 1.0001 1.0001 0 0 0 76.697266 45.033203 A 1.0001 1.0001 0 0 0 76.501953 47.015625 L 81.800781 48.082031 C 82.231409 49.115193 82.656031 50.15232 83.074219 51.193359 L 77.255859 49.554688 A 1.0001 1.0001 0 0 0 76.958984 49.513672 A 1.0001 1.0001 0 0 0 76.712891 51.480469 L 84.011719 53.535156 C 84.776812 55.492646 85.529128 57.458222 86.253906 59.441406 C 86.299611 59.56655 86.347201 59.69701 86.392578 59.822266 C 84.724003 59.903469 82.739973 60.098121 80.677734 60.431641 C 77.410329 60.960068 74.133787 61.747145 72.085938 63.097656 A 1.0001 1.0001 0 0 0 71.736328 64.369141 C 71.991387 64.896514 72.308055 65.414356 72.65625 65.927734 L 71.138672 68.490234 A 1.0008733 1.0008733 0 1 0 72.861328 69.509766 L 73.962891 67.648438 C 74.283184 68.034622 74.621347 68.419245 74.960938 68.802734 A 1.0001 1.0001 0 0 0 74.861328 68.970703 L 73.101562 72.560547 A 1.0001549 1.0001549 0 1 0 74.898438 73.439453 L 76.384766 70.410156 C 76.67548 70.734187 76.969915 71.057203 77.251953 71.382812 C 77.512982 71.684167 77.741344 71.984453 77.986328 72.285156 L 76.132812 75.5 A 1.001007 1.001007 0 1 0 77.867188 76.5 L 79.302734 74.007812 C 79.814576 74.765817 80.22518 75.512246 80.511719 76.240234 L 80.365234 76.603516 C 80.059589 76.758956 79.859723 76.861154 79.617188 76.982422 A 2.0002 2.0002 0 0 0 79.615234 76.982422 C 73.494157 80.045597 67.025779 82.737443 60.541016 84.964844 L 60.638672 83.208984 A 1.0001 1.0001 0 0 0 59.580078 82.140625 A 1.0001 1.0001 0 0 0 58.640625 83.099609 L 58.501953 85.630859 C 57.264966 86.036911 56.030115 86.432043 54.796875 86.802734 L 55.484375 83.427734 A 1.0001 1.0001 0 0 0 54.494141 82.214844 A 1.0001 1.0001 0 0 0 53.525391 83.027344 L 52.625 87.431641 C 51.074929 87.872191 49.535361 88.281505 48.003906 88.662109 L 48.570312 87.111328 A 1.0001 1.0001 0 0 0 47.570312 85.755859 A 1.0001 1.0001 0 0 0 46.691406 86.425781 L 45.667969 89.232422 C 44.445406 89.513422 43.231287 89.775964 42.029297 90.015625 L 44.869141 84.230469 A 1.0001 1.0001 0 0 0 43.919922 82.777344 A 1.0001 1.0001 0 0 0 43.074219 83.347656 L 40.6875 88.208984 C 39.973468 86.710936 39.260949 85.221775 38.529297 83.634766 L 40.066406 80.332031 A 1.0001 1.0001 0 0 0 39.185547 78.898438 A 1.0001 1.0001 0 0 0 38.251953 79.490234 L 37.443359 81.228516 C 36.928307 80.094342 36.414652 78.964398 35.892578 77.791016 L 37.384766 75.236328 A 1.0001 1.0001 0 0 0 36.542969 73.71875 A 1.0001 1.0001 0 0 0 35.658203 74.226562 L 34.894531 75.533203 C 28.697794 61.432218 22.081874 44.80444 15.6875 27.275391 C 31.375948 23.9295 46.58206 18.335819 61.0625 9.6484375 z M 56.572266 18.443359 C 56.443687 18.424937 56.309281 18.431547 56.175781 18.466797 C 55.641781 18.607797 55.321891 19.1545 55.462891 19.6875 C 55.603891 20.2215 56.151547 20.541391 56.685547 20.400391 C 57.219547 20.259391 57.537484 19.711734 57.396484 19.177734 C 57.290734 18.777234 56.958 18.498625 56.572266 18.443359 z M 56.292969 24.267578 C 56.164391 24.249156 56.029984 24.253813 55.896484 24.289062 C 55.363484 24.430062 55.043594 24.978719 55.183594 25.511719 C 55.324594 26.045719 55.87225 26.365609 56.40625 26.224609 C 56.94025 26.083609 57.258187 25.535953 57.117188 25.001953 C 57.011437 24.601453 56.678703 24.322844 56.292969 24.267578 z M 46.917969 26.109375 C 46.789391 26.090953 46.654984 26.097563 46.521484 26.132812 C 45.987484 26.273813 45.669547 26.819516 45.810547 27.353516 C 45.951547 27.887516 46.49725 28.207406 47.03125 28.066406 C 47.56525 27.925406 47.885141 27.37775 47.744141 26.84375 C 47.638391 26.44325 47.303703 26.164641 46.917969 26.109375 z M 62.980469 28.990234 A 1.0001 1.0001 0 0 0 62.292969 29.292969 C 59.509029 32.076908 54.331748 34.589737 49.886719 36.318359 C 45.44169 38.046982 41.742188 39.033203 41.742188 39.033203 A 1.0005816 1.0005816 0 1 0 42.257812 40.966797 C 42.257812 40.966797 46.05831 39.953018 50.613281 38.181641 C 55.168252 36.410263 60.490971 33.923092 63.707031 30.707031 A 1.0001 1.0001 0 0 0 62.980469 28.990234 z M 65.980469 37.990234 A 1.0001 1.0001 0 0 0 65.292969 38.292969 C 62.509029 41.076908 57.604136 43.32917 53.417969 44.806641 C 49.231802 46.284111 45.791016 47.021484 45.791016 47.021484 A 1.0005838 1.0005838 0 1 0 46.208984 48.978516 C 46.208984 48.978516 49.768198 48.215889 54.082031 46.693359 C 58.395864 45.17083 63.490971 42.923092 66.707031 39.707031 A 1.0001 1.0001 0 0 0 65.980469 37.990234 z M 38.003906 40.994141 A 1.0001 1.0001 0 0 0 37.552734 41.105469 C 36.791248 41.486212 35.347847 41.761114 34.150391 41.880859 C 32.952934 42.000605 32 42 32 42 A 1.0001 1.0001 0 1 0 32 44 C 32 44 33.047066 43.999395 34.349609 43.869141 C 35.652153 43.738886 37.208752 43.513788 38.447266 42.894531 A 1.0001 1.0001 0 0 0 38.003906 40.994141 z M 40.980469 48.990234 A 1.0001 1.0001 0 0 0 40.292969 49.292969 C 40.337599 49.248339 39.952403 49.479734 39.416016 49.603516 C 38.879629 49.727297 38.195446 49.81888 37.535156 49.878906 C 36.214577 49.998959 35 50 35 50 A 1.0001 1.0001 0 1 0 35 52 C 35 52 36.285423 52.001 37.714844 51.871094 C 38.429554 51.806124 39.182871 51.710203 39.865234 51.552734 C 40.547597 51.395266 41.162403 51.251659 41.707031 50.707031 A 1.0001 1.0001 0 0 0 40.980469 48.990234 z M 62.023438 49.992188 A 1.0001 1.0001 0 0 0 61.400391 50.199219 C 57.763057 52.927219 50.859375 54.009766 50.859375 54.009766 A 1.0001694 1.0001694 0 1 0 51.140625 55.990234 C 51.140625 55.990234 58.236943 55.072781 62.599609 51.800781 A 1.0001 1.0001 0 0 0 62.023438 49.992188 z M 70.023438 55.992188 A 1.0001 1.0001 0 0 0 69.400391 56.199219 C 67.624391 57.531219 63.888875 59.066787 60.673828 60.179688 C 57.458781 61.292588 54.736328 62.035156 54.736328 62.035156 A 1.0002234 1.0002234 0 0 0 55.263672 63.964844 C 55.263672 63.964844 58.041219 63.207412 61.326172 62.070312 C 64.611125 60.933214 68.375609 59.468781 70.599609 57.800781 A 1.0001 1.0001 0 0 0 70.023438 55.992188 z M 45.003906 56.994141 A 1.0001 1.0001 0 0 0 44.552734 57.105469 C 42.910505 57.926583 40 58 40 58 A 1.0001 1.0001 0 1 0 40 60 C 40 60 43.089495 60.07342 45.447266 58.894531 A 1.0001 1.0001 0 0 0 45.003906 56.994141 z M 86.296875 61.837891 L 81.523438 73.722656 C 80.76027 72.446651 79.773636 71.238256 78.763672 70.072266 C 76.98084 68.01401 75.233564 66.09168 74.150391 64.369141 C 75.806832 63.567201 78.314522 62.839932 80.996094 62.40625 C 82.89157 62.0997 84.753135 61.922113 86.296875 61.837891 z M 48.980469 64.990234 A 1.0001 1.0001 0 0 0 48.292969 65.292969 C 48.278669 65.307269 47.969668 65.494245 47.533203 65.613281 C 47.096738 65.732317 46.54385 65.821951 46.013672 65.880859 C 44.953315 65.998677 44 66 44 66 A 1.0001 1.0001 0 1 0 44 68 C 44 68 45.046685 68.0013 46.236328 67.869141 C 46.83115 67.803051 47.465762 67.705183 48.060547 67.542969 C 48.655332 67.380755 49.221329 67.192734 49.707031 66.707031 A 1.0001 1.0001 0 0 0 48.980469 64.990234 z M 54.322266 71.744141 C 54.193688 71.725719 54.059281 71.732328 53.925781 71.767578 C 53.391781 71.908578 53.073844 72.454281 53.214844 72.988281 C 53.355844 73.522281 53.901547 73.842172 54.435547 73.701172 C 54.969547 73.560172 55.289437 73.012516 55.148438 72.478516 C 55.042688 72.078016 54.708 71.799406 54.322266 71.744141 z M 49.298828 75.345703 C 49.17025 75.327281 49.035844 75.333891 48.902344 75.369141 C 48.369344 75.510141 48.049453 76.057797 48.189453 76.591797 C 48.330453 77.125797 48.878109 77.445688 49.412109 77.304688 C 49.946109 77.163688 50.264047 76.616031 50.123047 76.082031 C 50.017297 75.681531 49.684562 75.400969 49.298828 75.345703 z"/></svg>