<svg width="20" height="21" viewBox="0 0 20 21" fill="none" xmlns="http://www.w3.org/2000/svg">
<path d="M10 0.508789C9.78295 0.508789 9.56419 0.564748 9.37088 0.678363C9.36749 0.678363 9.36579 0.680059 9.3624 0.681755C9.3624 0.681755 7.07824 2.07226 4.79069 3.49499C3.64776 4.2072 2.50483 4.92619 1.64 5.48748C1.20928 5.76897 0.84809 6.00977 0.588642 6.19291C0.45807 6.28618 0.352934 6.36248 0.269843 6.43031C0.229145 6.46423 0.193534 6.49475 0.154533 6.53545C0.134184 6.5558 0.113835 6.57784 0.086703 6.61684C0.0612667 6.65585 0.0103943 6.70502 0.00191574 6.86103C-0.0133458 7.13235 0.0663541 7.14592 0.107052 7.21035C0.146054 7.27479 0.191839 7.33245 0.244407 7.40028C0.351238 7.53254 0.490289 7.69025 0.656472 7.87C0.715822 7.93274 0.804001 8.02092 0.870135 8.09044C0.870135 9.53013 0.873526 12.5384 0.875222 13.2336C0.612382 13.3896 0.449591 13.6728 0.449591 13.9797C0.449591 14.0798 0.468244 14.1798 0.502159 14.2748C0.208796 14.5122 0.0154817 14.8666 0.0154817 15.2685C0.0154817 15.7806 0.281713 16.2164 0.512333 16.5997C0.742954 16.9846 0.973575 17.283 0.973575 17.283C1.05497 17.3899 1.18215 17.4526 1.31611 17.4526C1.45008 17.4526 1.57726 17.3916 1.66035 17.2864C1.66035 17.2864 1.89097 16.9914 2.12329 16.6098C2.3556 16.2266 2.62014 15.7857 2.62014 15.2685C2.62014 14.8666 2.42682 14.5122 2.13346 14.2748C2.16738 14.1798 2.18603 14.0798 2.18603 13.9797C2.18603 13.6779 2.02833 13.3981 1.77227 13.2404C1.77227 12.6774 1.76888 10.6798 1.76718 9.01632C1.8011 9.05023 1.82823 9.08075 1.86384 9.11467C2.66931 9.92184 3.35439 10.5798 3.47479 10.6968C3.03899 10.9274 2.62014 11.4751 2.62014 12.34C2.62014 13.2302 3.17125 14.0764 4.03269 14.3206C4.5872 15.7264 5.29262 17.2017 6.22698 18.3683C7.18677 19.5672 8.42127 20.4592 9.92708 20.4863C9.95082 20.4897 9.97287 20.4914 9.99661 20.4914H9.9983C10 20.4914 10 20.4914 10.0017 20.4914C10.0034 20.4914 10.0051 20.4914 10.0068 20.4914C10.0237 20.4914 10.0424 20.4897 10.061 20.4863C11.572 20.4643 12.8098 19.5706 13.773 18.3683C14.7074 17.2017 15.4128 15.7264 15.9673 14.3206C16.8287 14.0764 17.3799 13.2302 17.3799 12.34C17.3799 11.4751 16.961 10.9274 16.5252 10.6968C16.6456 10.5798 17.3307 9.92184 18.1379 9.11467C18.5737 8.67717 19.0112 8.22949 19.3435 7.87C19.5097 7.69025 19.6488 7.53254 19.7556 7.40028C19.8082 7.33245 19.8539 7.27479 19.8946 7.21035C19.9336 7.14592 20.0133 7.13235 19.9981 6.86103C19.9896 6.70333 19.9387 6.65415 19.9116 6.61515C19.8862 6.57784 19.8658 6.5558 19.8455 6.53545C19.8065 6.49475 19.7709 6.46423 19.7285 6.43031C19.6471 6.36248 19.5419 6.28618 19.4114 6.19291C19.1519 6.00977 18.7907 5.76897 18.3583 5.48748C17.4952 4.92619 16.3522 4.2072 15.2093 3.49499C12.9218 2.07226 10.6376 0.681755 10.6376 0.681755C10.6342 0.680059 10.6325 0.678363 10.6291 0.678363C10.4358 0.564748 10.2171 0.508789 10 0.508789ZM10 1.40414C10.061 1.40414 10.1221 1.4211 10.1781 1.45332C10.1865 1.4584 12.4571 2.83874 14.7345 4.25637C15.8757 4.96689 17.017 5.68588 17.8699 6.24039C18.2973 6.51849 18.6517 6.7559 18.8942 6.92547C18.9179 6.94243 18.9247 6.94921 18.945 6.96447C18.8687 7.05435 18.7958 7.14083 18.6839 7.26123C18.3668 7.60546 17.9361 8.04635 17.502 8.48046C16.7982 9.18589 16.3319 9.63357 16.0911 9.86419V7.90222C16.0911 7.74621 16.0114 7.60207 15.8774 7.52067C15.8774 7.52067 13.6204 6.15221 10 6.15221C6.37959 6.15221 4.12256 7.52067 4.12256 7.52067C3.9886 7.60207 3.9089 7.74621 3.9089 7.90222V9.86419C3.66811 9.63357 3.20178 9.18589 2.49805 8.48046C2.20299 8.1871 1.95202 7.92256 1.69426 7.65294C1.66374 7.60377 1.62135 7.56137 1.57387 7.52915C1.49417 7.44437 1.38394 7.33753 1.31442 7.26292C1.2042 7.14083 1.13128 7.05265 1.05327 6.96447C1.07532 6.94751 1.0821 6.94243 1.10584 6.92547C1.34833 6.7542 1.70274 6.5168 2.13007 6.24039C2.98303 5.68419 4.12426 4.96689 5.26549 4.25637C7.54287 2.83874 9.81347 1.4584 9.82195 1.45332C9.87791 1.4211 9.93895 1.40414 10 1.40414ZM10 7.04756C13.1439 7.04756 14.9193 8.03279 15.1957 8.19219V9.91675C14.5124 9.68953 12.8387 9.19098 10 9.19098C7.16133 9.19098 5.48764 9.68953 4.80425 9.91675V8.19219C5.08066 8.03279 6.8561 7.04756 10 7.04756ZM10 10.0863C12.7742 10.0863 14.6175 10.6307 15.2093 10.8325V11.4243L15.6909 11.3734C15.6909 11.3734 15.9046 11.3564 16.1047 11.4548C16.3065 11.5514 16.5116 11.6922 16.5116 12.34C16.5116 12.9487 16.1182 13.4948 15.5993 13.5473L15.3331 13.5745L15.2381 13.8237C14.6921 15.238 13.9765 16.7235 13.0947 17.8257C12.2129 18.9262 11.2023 19.6232 10.0017 19.6232C10 19.6232 10 19.6232 9.9983 19.6232C8.79772 19.6232 7.78706 18.9262 6.90527 17.8257C6.02349 16.7235 5.30789 15.238 4.76186 13.8237L4.6669 13.5745L4.40067 13.5473C3.88177 13.4948 3.48836 12.9487 3.48836 12.34C3.48836 11.6922 3.69354 11.5514 3.89533 11.4548C4.09543 11.3564 4.3091 11.3734 4.3091 11.3734L4.79069 11.4243V10.8325C5.3825 10.6307 7.22577 10.0863 10 10.0863ZM1.31781 14.848C1.56708 14.848 1.75192 15.0362 1.75192 15.2685C1.75192 15.3923 1.58235 15.8247 1.38055 16.1571C1.35003 16.208 1.35003 16.2012 1.31951 16.247C1.28898 16.1978 1.28729 16.2046 1.25507 16.152C1.05158 15.8162 0.883701 15.3753 0.883701 15.2685C0.883701 15.0362 1.06854 14.848 1.31781 14.848Z" fill="#3933DF"/>
</svg>
