<svg width="20" height="19" viewBox="0 0 20 19" fill="none" xmlns="http://www.w3.org/2000/svg">
<path d="M10.0012 0.584717C9.01223 0.584717 8.12795 0.87687 7.47647 1.37212C6.93434 1.78301 6.55314 2.34545 6.43909 2.98444H1.2022C0.544468 2.98444 0.00234348 3.52656 0.00234348 4.18429V10.9085C-0.000781158 10.9335 -0.000781158 10.9585 0.00234348 10.9835V17.7827C0.00234348 18.4404 0.544468 18.9826 1.2022 18.9826H18.8001C19.4579 18.9826 20 18.4404 20 17.7827V10.946C20 10.9335 20 10.921 20 10.9085V4.18429C20 3.52656 19.4579 2.98444 18.8001 2.98444H13.5633C13.4492 2.34545 13.068 1.78301 12.5259 1.37212C11.8744 0.87687 10.9901 0.584717 10.0012 0.584717ZM10.0012 1.38462C10.8339 1.38462 11.5463 1.63616 12.0384 2.00955C12.404 2.28764 12.6493 2.61573 12.7508 2.98444H7.25149C7.35304 2.61573 7.59833 2.28764 7.96391 2.00955C8.45604 1.63616 9.16846 1.38462 10.0012 1.38462ZM1.2022 3.78434H18.8001C19.0267 3.78434 19.2001 3.95776 19.2001 4.18429V10.9085C19.1985 10.9257 19.1985 10.9413 19.2001 10.9585V10.9835C19.2001 11.21 19.0267 11.3835 18.8001 11.3835H12.0009C12.0009 10.7257 11.4588 10.1836 10.8011 10.1836H9.20127C8.54353 10.1836 8.00141 10.7257 8.00141 11.3835H1.2022C0.975667 11.3835 0.80225 11.21 0.80225 10.9835C0.805375 10.9585 0.805375 10.9335 0.80225 10.9085V4.18429C0.80225 3.95776 0.975667 3.78434 1.2022 3.78434ZM9.20127 10.9835H10.8011C11.0276 10.9835 11.201 11.1569 11.201 11.3835V11.7084C11.201 11.7209 11.201 11.7334 11.201 11.7459V11.7834C11.1979 11.8131 11.1979 11.8412 11.201 11.8709V12.1834C11.201 12.4099 11.0276 12.5833 10.8011 12.5833H9.20127C8.97473 12.5833 8.80131 12.4099 8.80131 12.1834V11.8584C8.81225 11.8053 8.81225 11.749 8.80131 11.6959V11.3835C8.80131 11.1569 8.97473 10.9835 9.20127 10.9835ZM0.80225 12.1084C0.928797 12.1537 1.06159 12.1834 1.2022 12.1834H8.00141C8.00141 12.8411 8.54353 13.3832 9.20127 13.3832H10.8011C11.4588 13.3832 12.0009 12.8411 12.0009 12.1834H18.8001C18.9407 12.1834 19.0735 12.1537 19.2001 12.1084V17.7827C19.2001 18.0092 19.0267 18.1827 18.8001 18.1827H1.2022C0.975667 18.1827 0.80225 18.0092 0.80225 17.7827V12.1084Z" fill="#3933DF"/>
</svg>
